<svg width="21" height="20" viewBox="0 0 21 20" fill="none" xmlns="http://www.w3.org/2000/svg">
<g id="Heart" clip-path="url(#clip0_2_526)">
<path id="Icon" d="M17.8667 3.84166C17.441 3.41583 16.9357 3.07803 16.3795 2.84757C15.8232 2.6171 15.2271 2.49847 14.625 2.49847C14.0229 2.49847 13.4268 2.6171 12.8705 2.84757C12.3143 3.07803 11.809 3.41583 11.3833 3.84166L10.5 4.725L9.61666 3.84166C8.75692 2.98192 7.59086 2.49892 6.375 2.49892C5.15914 2.49892 3.99307 2.98192 3.13333 3.84166C2.27359 4.70141 1.79059 5.86747 1.79059 7.08333C1.79059 8.29919 2.27359 9.46525 3.13333 10.325L10.5 17.6917L17.8667 10.325C18.2925 9.89937 18.6303 9.39401 18.8608 8.83779C19.0912 8.28158 19.2099 7.6854 19.2099 7.08333C19.2099 6.48126 19.0912 5.88508 18.8608 5.32887C18.6303 4.77265 18.2925 4.26729 17.8667 3.84166Z" fill="white" stroke="white" stroke-width="2" stroke-linecap="round" stroke-linejoin="round"/>
</g>
<defs>
<clipPath id="clip0_2_526">
<rect width="20" height="20" fill="white" transform="translate(0.5)"/>
</clipPath>
</defs>
</svg>
